<svg width="422.48mm" height="423.32mm" viewBox="0 0 422.48 423.32" xmlns="http://www.w3.org/2000/svg" version="1.1" preserveAspectRatio="xMidYMid meet"><g id="svgGroup" stroke-linecap="round" fill-rule="evenodd" font-size="9pt" stroke="#000" stroke-width="0.25mm" fill="none" style="stroke:#000;stroke-width:0.25mm;fill:none"><path d="M 32.574 423.273 L 32.574 418.32 L 60.138 418.32 L 60.138 423.273 L 60.185 423.32 L 87.975 423.32 L 88.022 423.273 L 88.022 418.32 L 115.586 418.32 L 115.586 423.273 L 115.633 423.32 L 148.113 423.32 L 148.16 423.273 L 148.16 387.517 L 148.113 387.47 L 143.16 387.47 L 143.16 359.906 L 148.113 359.906 L 148.16 359.859 L 148.16 332.069 L 148.113 332.022 L 143.16 332.022 L 143.16 304.458 L 148.113 304.458 L 148.16 304.411 L 148.16 276.621 L 148.113 276.574 L 143.16 276.574 L 143.16 249.01 L 148.113 249.01 L 148.16 248.963 L 148.16 213.207 L 148.113 213.16 L 115.633 213.16 L 115.586 213.207 L 115.586 218.16 L 88.022 218.16 L 88.022 213.207 L 87.975 213.16 L 60.185 213.16 L 60.138 213.207 L 60.138 218.16 L 32.574 218.16 L 32.574 213.207 L 32.527 213.16 L 0.047 213.16 L 0 213.207 L 0 248.963 L 0.047 249.01 L 5 249.01 L 5 276.574 L 0.047 276.574 L 0 276.621 L 0 304.411 L 0.047 304.458 L 5 304.458 L 5 332.022 L 0.047 332.022 L 0 332.069 L 0 359.859 L 0.047 359.906 L 5 359.906 L 5 387.47 L 0.047 387.47 L 0 387.517 L 0 423.273 L 0.047 423.32 L 32.527 423.32 L 32.574 423.273 Z" id="front_outsideCutPath" stroke="#FF0000" stroke-width="0.1" style="stroke:#FF0000;stroke-width:0.1" vector-effect="non-scaling-stroke"/><path d="M 95.675 329.431 L 93.273 329.431 L 93.273 319.173 Q 93.273 317.937 92.914 317.101 A 2.857 2.857 0 0 0 92.39 316.279 A 2.708 2.708 0 0 0 91.28 315.57 Q 90.582 315.324 89.627 315.324 Q 87.987 315.324 86.926 315.908 A 3.386 3.386 0 0 0 85.981 316.67 A 3.926 3.926 0 0 0 85.298 317.863 Q 84.887 318.958 84.832 320.59 A 15.387 15.387 0 0 0 84.823 321.112 L 84.823 329.431 L 82.421 329.431 L 82.421 313.574 L 84.375 313.574 L 84.765 315.744 L 84.881 315.744 A 4.863 4.863 0 0 1 86.786 314.011 A 5.848 5.848 0 0 1 86.95 313.928 A 6.504 6.504 0 0 1 89.264 313.311 A 7.864 7.864 0 0 1 89.916 313.284 A 9.483 9.483 0 0 1 91.53 313.412 Q 92.402 313.563 93.092 313.892 A 4.316 4.316 0 0 1 94.228 314.666 Q 95.675 316.048 95.675 319.086 L 95.675 329.431 Z M 49.534 313.574 L 49.534 315.44 L 45.497 315.44 L 45.497 329.431 L 43.095 329.431 L 43.095 315.44 L 40.259 315.44 L 40.259 314.355 L 43.095 313.487 L 43.095 312.604 A 9.734 9.734 0 0 1 43.322 310.398 Q 44.025 307.389 46.901 306.868 A 7.3 7.3 0 0 1 48.203 306.759 Q 49.181 306.759 50.422 307.065 A 15.548 15.548 0 0 1 51.154 307.265 L 50.532 309.189 Q 49.545 308.871 48.763 308.779 A 5.165 5.165 0 0 0 48.159 308.741 A 3.239 3.239 0 0 0 47.378 308.829 A 2.08 2.08 0 0 0 46.148 309.645 A 2.779 2.779 0 0 0 45.781 310.386 Q 45.537 311.11 45.503 312.185 A 11.34 11.34 0 0 0 45.497 312.546 L 45.497 313.574 L 49.534 313.574 Z M 107.901 327.449 L 107.901 329.287 A 2.362 2.362 0 0 1 107.621 329.398 Q 107.322 329.497 106.894 329.573 A 8.981 8.981 0 0 1 106.75 329.598 A 10.41 10.41 0 0 1 106.072 329.686 Q 105.752 329.716 105.465 329.72 A 6.156 6.156 0 0 1 105.383 329.721 Q 100.782 329.721 100.782 324.874 L 100.782 315.44 L 98.51 315.44 L 98.51 314.282 L 100.782 313.284 L 101.795 309.898 L 103.184 309.898 L 103.184 313.574 L 107.785 313.574 L 107.785 315.44 L 103.184 315.44 L 103.184 324.772 A 4.836 4.836 0 0 0 103.254 325.622 Q 103.402 326.45 103.864 326.972 A 2.231 2.231 0 0 0 105.236 327.702 A 3.21 3.21 0 0 0 105.73 327.738 A 7.888 7.888 0 0 0 106.886 327.656 A 7.273 7.273 0 0 0 106.96 327.644 Q 107.553 327.55 107.901 327.449 Z M 61.557 313.458 L 61.225 315.686 A 10.586 10.586 0 0 0 60.463 315.545 Q 59.935 315.469 59.488 315.469 A 4.162 4.162 0 0 0 56.414 316.797 A 5.693 5.693 0 0 0 56.197 317.032 A 5.485 5.485 0 0 0 54.873 320.111 A 7.29 7.29 0 0 0 54.829 320.924 L 54.829 329.431 L 52.428 329.431 L 52.428 313.574 L 54.41 313.574 L 54.685 316.511 L 54.8 316.511 Q 55.683 314.963 56.927 314.123 A 4.788 4.788 0 0 1 59.662 313.284 A 11.026 11.026 0 0 1 60.649 313.326 A 8.048 8.048 0 0 1 61.557 313.458 Z M 77.99 323.901 A 12.406 12.406 0 0 0 78.211 321.488 A 14.096 14.096 0 0 0 78.206 321.107 Q 78.17 319.786 77.884 318.665 A 7.479 7.479 0 0 0 76.25 315.498 A 6.288 6.288 0 0 0 73.331 313.615 A 8.071 8.071 0 0 0 70.962 313.284 A 9.328 9.328 0 0 0 69.286 313.428 A 6.353 6.353 0 0 0 65.58 315.447 A 6.636 6.636 0 0 0 64.765 316.577 Q 64.137 317.672 63.86 319.076 A 12.471 12.471 0 0 0 63.641 321.488 A 12.015 12.015 0 0 0 63.792 323.434 A 8.885 8.885 0 0 0 64.538 325.857 A 7.894 7.894 0 0 0 64.713 326.2 A 6.502 6.502 0 0 0 67.084 328.722 A 6.688 6.688 0 0 0 68.619 329.405 A 7.713 7.713 0 0 0 70.861 329.721 A 9.326 9.326 0 0 0 72.489 329.585 A 6.403 6.403 0 0 0 76.258 327.543 A 6.7 6.7 0 0 0 77.055 326.447 Q 77.706 325.334 77.99 323.901 Z M 66.129 321.488 A 12.163 12.163 0 0 0 66.245 323.225 Q 66.373 324.107 66.641 324.822 A 5.039 5.039 0 0 0 67.345 326.118 Q 68.56 327.709 70.919 327.709 A 5.579 5.579 0 0 0 72.39 327.527 A 3.882 3.882 0 0 0 74.5 326.125 A 5.156 5.156 0 0 0 75.302 324.561 Q 75.539 323.839 75.642 322.957 A 12.652 12.652 0 0 0 75.722 321.488 A 11.984 11.984 0 0 0 75.609 319.78 Q 75.483 318.911 75.219 318.207 A 4.945 4.945 0 0 0 74.5 316.894 A 3.951 3.951 0 0 0 72.043 315.429 A 6.058 6.058 0 0 0 70.89 315.324 Q 68.531 315.324 67.33 316.872 Q 66.466 317.987 66.224 319.888 A 12.692 12.692 0 0 0 66.129 321.488 Z" id="front_labelLayer" stroke="#777777" fill="#777777" style="stroke:#777777;fill:#777777" vector-effect="non-scaling-stroke"/><path d="M 169.734 423.273 L 169.734 418.32 L 197.298 418.32 L 197.298 423.273 L 197.345 423.32 L 225.135 423.32 L 225.182 423.273 L 225.182 418.32 L 252.746 418.32 L 252.746 423.273 L 252.793 423.32 L 266.273 423.32 L 266.32 423.273 L 266.32 387.63 L 271.273 387.63 L 271.32 387.583 L 271.32 359.793 L 271.273 359.746 L 266.32 359.746 L 266.32 332.182 L 271.273 332.182 L 271.32 332.135 L 271.32 304.345 L 271.273 304.298 L 266.32 304.298 L 266.32 276.734 L 271.273 276.734 L 271.32 276.687 L 271.32 248.897 L 271.273 248.85 L 266.32 248.85 L 266.32 213.207 L 266.273 213.16 L 252.793 213.16 L 252.746 213.207 L 252.746 218.16 L 225.182 218.16 L 225.182 213.207 L 225.135 213.16 L 197.345 213.16 L 197.298 213.207 L 197.298 218.16 L 169.734 218.16 L 169.734 213.207 L 169.687 213.16 L 156.207 213.16 L 156.16 213.207 L 156.16 248.85 L 151.207 248.85 L 151.16 248.897 L 151.16 276.687 L 151.207 276.734 L 156.16 276.734 L 156.16 304.298 L 151.207 304.298 L 151.16 304.345 L 151.16 332.135 L 151.207 332.182 L 156.16 332.182 L 156.16 359.746 L 151.207 359.746 L 151.16 359.793 L 151.16 387.583 L 151.207 387.63 L 156.16 387.63 L 156.16 423.273 L 156.207 423.32 L 169.687 423.32 L 169.734 423.273 Z" id="left_outsideCutPath" stroke="#FF0000" stroke-width="0.1" style="stroke:#FF0000;stroke-width:0.1" vector-effect="non-scaling-stroke"/><path d="M 219.788 314.455 L 219.788 315.969 L 216.515 315.969 L 216.515 327.316 L 214.567 327.316 L 214.567 315.969 L 212.267 315.969 L 212.267 315.089 L 214.567 314.385 L 214.567 313.669 Q 214.567 308.929 218.709 308.929 A 6.273 6.273 0 0 1 219.597 308.996 Q 220.028 309.058 220.509 309.177 A 12.61 12.61 0 0 1 221.103 309.339 L 220.598 310.9 A 9.459 9.459 0 0 0 219.863 310.693 Q 219.491 310.605 219.164 310.567 A 4.189 4.189 0 0 0 218.674 310.536 A 2.627 2.627 0 0 0 218.04 310.608 A 1.687 1.687 0 0 0 217.043 311.27 A 2.254 2.254 0 0 0 216.745 311.87 Q 216.547 312.457 216.519 313.329 A 9.197 9.197 0 0 0 216.515 313.622 L 216.515 314.455 L 219.788 314.455 Z M 210.671 320.006 L 210.671 321.238 L 201.811 321.238 A 7.818 7.818 0 0 0 201.948 322.547 Q 202.089 323.26 202.371 323.823 A 3.657 3.657 0 0 0 202.956 324.676 A 3.54 3.54 0 0 0 204.814 325.723 A 5.363 5.363 0 0 0 206.012 325.849 A 10.288 10.288 0 0 0 209.865 325.086 A 11.79 11.79 0 0 0 210.119 324.981 L 210.119 326.718 A 11.694 11.694 0 0 1 209.054 327.12 A 8.943 8.943 0 0 1 208.166 327.357 A 8.177 8.177 0 0 1 207.354 327.483 Q 206.955 327.525 206.503 327.541 A 15.87 15.87 0 0 1 205.942 327.551 A 7.569 7.569 0 0 1 204.048 327.327 A 5.36 5.36 0 0 1 201.442 325.814 A 5.733 5.733 0 0 1 200.07 323.296 Q 199.832 322.403 199.799 321.343 A 11.127 11.127 0 0 1 199.793 320.991 A 10.228 10.228 0 0 1 199.982 318.963 Q 200.232 317.73 200.811 316.772 A 5.768 5.768 0 0 1 201.324 316.051 A 4.992 4.992 0 0 1 204.963 314.237 A 6.886 6.886 0 0 1 205.437 314.221 A 5.935 5.935 0 0 1 207.108 314.444 A 4.516 4.516 0 0 1 209.263 315.811 A 5.447 5.447 0 0 1 210.497 318.3 A 7.928 7.928 0 0 1 210.671 320.006 Z M 228.049 325.709 L 228.049 327.199 A 1.916 1.916 0 0 1 227.822 327.289 Q 227.54 327.383 227.117 327.451 A 8.443 8.443 0 0 1 226.566 327.523 Q 226.307 327.547 226.074 327.551 A 4.996 4.996 0 0 1 226.008 327.551 A 5.088 5.088 0 0 1 224.508 327.349 Q 222.86 326.841 222.429 325.05 A 6.123 6.123 0 0 1 222.276 323.62 L 222.276 315.969 L 220.434 315.969 L 220.434 315.03 L 222.276 314.221 L 223.098 311.475 L 224.224 311.475 L 224.224 314.455 L 227.956 314.455 L 227.956 315.969 L 224.224 315.969 L 224.224 323.538 A 3.922 3.922 0 0 0 224.281 324.227 Q 224.348 324.605 224.496 324.904 A 1.889 1.889 0 0 0 224.776 325.321 Q 225.327 325.943 226.289 325.943 A 6.397 6.397 0 0 0 227.226 325.876 A 5.896 5.896 0 0 0 227.287 325.867 A 10.537 10.537 0 0 0 227.568 325.819 Q 227.856 325.765 228.049 325.709 Z M 196.378 309.058 L 196.378 327.316 L 194.431 327.316 L 194.431 309.058 L 196.378 309.058 Z M 201.858 319.654 L 208.582 319.654 Q 208.582 318.408 208.206 317.556 A 3.014 3.014 0 0 0 207.761 316.832 A 2.669 2.669 0 0 0 206.154 315.917 A 4.003 4.003 0 0 0 205.414 315.852 A 3.84 3.84 0 0 0 204.305 316.004 A 2.967 2.967 0 0 0 202.944 316.861 Q 202.023 317.87 201.858 319.654 Z" id="left_labelLayer" stroke="#777777" fill="#777777" style="stroke:#777777;fill:#777777" vector-effect="non-scaling-stroke"/><path d="M 334.618 423.273 L 334.618 418.32 L 362.182 418.32 L 362.182 423.273 L 362.229 423.32 L 390.019 423.32 L 390.066 423.273 L 390.066 418.32 L 417.433 418.32 L 417.48 418.273 L 417.48 404.906 L 422.433 404.906 L 422.48 404.859 L 422.48 377.069 L 422.433 377.022 L 417.48 377.022 L 417.48 349.458 L 422.433 349.458 L 422.48 349.411 L 422.48 321.621 L 422.433 321.574 L 417.48 321.574 L 417.48 308.207 L 417.433 308.16 L 390.066 308.16 L 390.066 303.207 L 390.019 303.16 L 362.229 303.16 L 362.182 303.207 L 362.182 308.16 L 334.618 308.16 L 334.618 303.207 L 334.571 303.16 L 306.781 303.16 L 306.734 303.207 L 306.734 308.16 L 279.367 308.16 L 279.32 308.207 L 279.32 321.574 L 274.367 321.574 L 274.32 321.621 L 274.32 349.411 L 274.367 349.458 L 279.32 349.458 L 279.32 377.022 L 274.367 377.022 L 274.32 377.069 L 274.32 404.859 L 274.367 404.906 L 279.32 404.906 L 279.32 418.273 L 279.367 418.32 L 306.734 418.32 L 306.734 423.273 L 306.781 423.32 L 334.571 423.32 L 334.618 423.273 Z" id="top_outsideCutPath" stroke="#FF0000" stroke-width="0.1" style="stroke:#FF0000;stroke-width:0.1" vector-effect="non-scaling-stroke"/><path d="M 357.036 366.62 L 356.896 366.62 A 18.434 18.434 0 0 1 357.017 367.982 A 15.447 15.447 0 0 1 357.036 368.755 L 357.036 374.047 L 355.088 374.047 L 355.088 355.413 L 356.673 355.413 L 356.943 357.173 L 357.036 357.173 A 5.243 5.243 0 0 1 357.795 356.312 A 4.055 4.055 0 0 1 358.785 355.648 Q 359.782 355.178 361.073 355.178 A 5.971 5.971 0 0 1 362.76 355.404 A 4.413 4.413 0 0 1 365.022 356.927 Q 366.412 358.675 366.412 361.832 A 11.421 11.421 0 0 1 366.261 363.754 Q 365.95 365.574 364.998 366.754 Q 363.584 368.509 361.073 368.509 A 5.908 5.908 0 0 1 359.588 368.328 A 5.141 5.141 0 0 1 358.779 368.045 Q 357.74 367.582 357.036 366.62 Z M 338.003 366.666 L 338.003 368.157 A 1.916 1.916 0 0 1 337.776 368.247 Q 337.494 368.34 337.07 368.409 A 8.443 8.443 0 0 1 336.52 368.481 Q 336.26 368.505 336.027 368.508 A 4.996 4.996 0 0 1 335.961 368.509 A 5.088 5.088 0 0 1 334.462 368.307 Q 332.814 367.798 332.383 366.008 A 6.123 6.123 0 0 1 332.23 364.578 L 332.23 356.927 L 330.388 356.927 L 330.388 355.988 L 332.23 355.178 L 333.051 352.433 L 334.178 352.433 L 334.178 355.413 L 337.909 355.413 L 337.909 356.927 L 334.178 356.927 L 334.178 364.496 A 3.922 3.922 0 0 0 334.234 365.184 Q 334.302 365.562 334.45 365.862 A 1.889 1.889 0 0 0 334.729 366.279 Q 335.281 366.901 336.243 366.901 A 6.397 6.397 0 0 0 337.18 366.834 A 5.896 5.896 0 0 0 337.241 366.825 A 10.537 10.537 0 0 0 337.522 366.777 Q 337.81 366.723 338.003 366.666 Z M 351.495 363.789 A 10.062 10.062 0 0 0 351.674 361.832 Q 351.674 358.769 350.084 356.974 A 5.099 5.099 0 0 0 347.716 355.447 A 6.545 6.545 0 0 0 345.795 355.178 A 7.565 7.565 0 0 0 344.436 355.295 A 5.152 5.152 0 0 0 341.43 356.933 A 5.382 5.382 0 0 0 340.769 357.849 Q 340.259 358.737 340.035 359.876 A 10.114 10.114 0 0 0 339.857 361.832 Q 339.857 363.862 340.585 365.376 A 6.403 6.403 0 0 0 340.727 365.653 A 5.273 5.273 0 0 0 342.65 367.699 A 5.424 5.424 0 0 0 343.895 368.253 A 6.255 6.255 0 0 0 345.713 368.509 A 7.564 7.564 0 0 0 347.034 368.398 A 5.193 5.193 0 0 0 350.09 366.743 A 5.434 5.434 0 0 0 350.737 365.854 Q 351.264 364.951 351.495 363.789 Z M 341.876 361.832 A 9.864 9.864 0 0 0 341.969 363.241 Q 342.18 364.694 342.861 365.587 A 3.193 3.193 0 0 0 344.941 366.811 A 4.838 4.838 0 0 0 345.76 366.878 A 4.524 4.524 0 0 0 346.953 366.729 A 3.149 3.149 0 0 0 348.664 365.593 Q 349.401 364.637 349.59 363.023 A 10.261 10.261 0 0 0 349.655 361.832 A 9.719 9.719 0 0 0 349.563 360.447 Q 349.462 359.742 349.247 359.171 A 4.011 4.011 0 0 0 348.664 358.106 A 3.204 3.204 0 0 0 346.672 356.918 A 4.913 4.913 0 0 0 345.736 356.833 A 4.636 4.636 0 0 0 344.582 356.968 A 3.102 3.102 0 0 0 342.85 358.089 A 4.027 4.027 0 0 0 342.223 359.298 Q 342.039 359.854 341.952 360.535 A 10.293 10.293 0 0 0 341.876 361.832 Z M 357.036 361.398 L 357.036 361.832 Q 357.036 364.134 357.688 365.323 A 2.938 2.938 0 0 0 357.94 365.71 Q 358.75 366.757 360.437 366.865 A 6.263 6.263 0 0 0 360.838 366.878 A 3.282 3.282 0 0 0 362.114 366.638 Q 362.85 366.331 363.376 365.63 A 3.882 3.882 0 0 0 363.449 365.528 Q 364.394 364.179 364.394 361.808 Q 364.394 360.23 363.987 359.134 A 4.13 4.13 0 0 0 363.449 358.118 Q 362.505 356.833 360.791 356.833 A 5.613 5.613 0 0 0 359.743 356.924 Q 358.566 357.148 357.94 357.924 Q 357.116 358.946 357.043 361.099 A 12.398 12.398 0 0 0 357.036 361.398 Z" id="top_labelLayer" stroke="#777777" fill="#777777" style="stroke:#777777;fill:#777777" vector-effect="non-scaling-stroke"/><path d="M 32.574 210.113 L 32.574 205.16 L 60.138 205.16 L 60.138 210.113 L 60.185 210.16 L 87.975 210.16 L 88.022 210.113 L 88.022 205.16 L 115.586 205.16 L 115.586 210.113 L 115.633 210.16 L 148.113 210.16 L 148.16 210.113 L 148.16 174.357 L 148.113 174.31 L 143.16 174.31 L 143.16 146.746 L 148.113 146.746 L 148.16 146.699 L 148.16 118.909 L 148.113 118.862 L 143.16 118.862 L 143.16 91.298 L 148.113 91.298 L 148.16 91.251 L 148.16 63.461 L 148.113 63.414 L 143.16 63.414 L 143.16 35.85 L 148.113 35.85 L 148.16 35.803 L 148.16 0.047 L 148.113 0 L 115.633 0 L 115.586 0.047 L 115.586 5 L 88.022 5 L 88.022 0.047 L 87.975 0 L 60.185 0 L 60.138 0.047 L 60.138 5 L 32.574 5 L 32.574 0.047 L 32.527 0 L 0.047 0 L 0 0.047 L 0 35.803 L 0.047 35.85 L 5 35.85 L 5 63.414 L 0.047 63.414 L 0 63.461 L 0 91.251 L 0.047 91.298 L 5 91.298 L 5 118.862 L 0.047 118.862 L 0 118.909 L 0 146.699 L 0.047 146.746 L 5 146.746 L 5 174.31 L 0.047 174.31 L 0 174.357 L 0 210.113 L 0.047 210.16 L 32.527 210.16 L 32.574 210.113 Z" id="back_outsideCutPath" stroke="#FF0000" stroke-width="0.1" style="stroke:#FF0000;stroke-width:0.1" vector-effect="non-scaling-stroke"/><path d="M 94.365 108.075 L 94.481 108.075 Q 94.957 107.399 95.815 106.401 A 51.607 51.607 0 0 1 96.376 105.76 L 101.498 100.334 L 104.349 100.334 L 97.925 107.091 L 104.797 116.192 L 101.889 116.192 L 96.29 108.697 L 94.481 110.26 L 94.481 116.192 L 92.108 116.192 L 92.108 93.678 L 94.481 93.678 L 94.481 105.615 Q 94.481 106.397 94.369 108.015 A 99.494 99.494 0 0 1 94.365 108.075 Z M 45.765 114.152 L 45.591 114.152 L 45.085 116.192 L 43.363 116.192 L 43.363 93.678 L 45.765 93.678 L 45.765 99.148 A 50.076 50.076 0 0 1 45.737 100.839 Q 45.709 101.693 45.649 102.447 L 45.765 102.447 A 5.461 5.461 0 0 1 49.751 100.132 A 8.203 8.203 0 0 1 50.742 100.074 A 7.341 7.341 0 0 1 52.808 100.349 A 5.495 5.495 0 0 1 55.596 102.208 A 7.077 7.077 0 0 1 56.837 104.598 Q 57.325 106.173 57.325 108.248 A 14.082 14.082 0 0 1 57.139 110.618 Q 56.923 111.881 56.457 112.894 A 6.751 6.751 0 0 1 55.582 114.318 A 5.686 5.686 0 0 1 51.541 116.443 A 8.146 8.146 0 0 1 50.742 116.481 A 7.285 7.285 0 0 1 48.911 116.258 A 6.339 6.339 0 0 1 47.913 115.91 A 5.32 5.32 0 0 1 45.765 114.152 Z M 73.053 116.192 L 71.273 116.192 L 70.796 113.935 L 70.68 113.935 A 9.957 9.957 0 0 1 69.874 114.837 Q 69.441 115.262 69.008 115.559 A 4.425 4.425 0 0 1 68.314 115.953 Q 67.342 116.388 65.972 116.465 A 10.809 10.809 0 0 1 65.37 116.481 A 7.371 7.371 0 0 1 63.87 116.338 Q 62.953 116.147 62.249 115.703 A 4.136 4.136 0 0 1 61.673 115.266 A 3.948 3.948 0 0 1 60.482 113.184 A 6.043 6.043 0 0 1 60.335 111.808 A 4.156 4.156 0 0 1 62.699 107.886 Q 64.596 106.876 68.018 106.773 L 70.709 106.686 L 70.709 105.702 A 6.899 6.899 0 0 0 70.642 104.705 Q 70.477 103.578 69.906 102.946 A 2.438 2.438 0 0 0 68.907 102.294 Q 68.507 102.149 68.012 102.092 A 5.934 5.934 0 0 0 67.338 102.056 A 7.82 7.82 0 0 0 65.538 102.28 Q 64.28 102.578 62.852 103.271 L 62.114 101.434 A 11.074 11.074 0 0 1 64.252 100.555 A 12.605 12.605 0 0 1 64.683 100.435 A 11.123 11.123 0 0 1 67.482 100.074 A 10.144 10.144 0 0 1 69.027 100.183 Q 70.721 100.445 71.685 101.332 A 3.803 3.803 0 0 1 72.667 102.846 Q 72.896 103.468 72.989 104.241 A 9.451 9.451 0 0 1 73.053 105.369 L 73.053 116.192 Z M 88.578 100.869 L 87.84 102.91 A 10.685 10.685 0 0 0 86.681 102.524 A 12.761 12.761 0 0 0 86.104 102.381 Q 85.299 102.202 84.653 102.176 A 5.324 5.324 0 0 0 84.44 102.172 Q 79.607 102.172 79.607 108.335 A 11.632 11.632 0 0 0 79.722 110.029 Q 79.976 111.746 80.786 112.821 Q 81.965 114.383 84.28 114.383 A 10.054 10.054 0 0 0 87.054 113.98 A 12.414 12.414 0 0 0 88.346 113.53 L 88.346 115.656 A 6.832 6.832 0 0 1 86.675 116.248 Q 85.623 116.481 84.338 116.481 A 8.977 8.977 0 0 1 82.155 116.231 A 6.087 6.087 0 0 1 79.007 114.362 Q 77.376 112.531 77.153 109.388 A 14.523 14.523 0 0 1 77.118 108.364 Q 77.118 105.483 78.123 103.551 A 6.621 6.621 0 0 1 79.036 102.215 A 6.219 6.219 0 0 1 82.441 100.257 A 9.428 9.428 0 0 1 84.498 100.045 A 10.839 10.839 0 0 1 86.784 100.291 Q 87.927 100.537 88.578 100.869 Z M 50.395 102.085 A 6.749 6.749 0 0 0 49.088 102.203 Q 48.343 102.35 47.778 102.681 A 3.194 3.194 0 0 0 46.85 103.496 A 4.111 4.111 0 0 0 46.255 104.629 Q 45.853 105.755 45.781 107.466 A 18.505 18.505 0 0 0 45.765 108.248 A 15.881 15.881 0 0 0 45.843 109.89 Q 46.016 111.546 46.568 112.554 A 3.623 3.623 0 0 0 46.879 113.03 A 3.484 3.484 0 0 0 48.646 114.223 Q 49.434 114.47 50.453 114.47 A 4.788 4.788 0 0 0 51.813 114.288 A 3.454 3.454 0 0 0 53.751 112.857 Q 54.837 111.244 54.837 108.22 Q 54.837 105.284 53.861 103.766 A 3.984 3.984 0 0 0 53.751 103.604 A 3.503 3.503 0 0 0 51.522 102.193 A 5.555 5.555 0 0 0 50.395 102.085 Z M 70.651 109.826 L 70.651 108.393 L 68.249 108.494 Q 65.857 108.579 64.579 109.143 A 3.689 3.689 0 0 0 64.118 109.384 A 2.563 2.563 0 0 0 62.897 111.244 A 3.794 3.794 0 0 0 62.852 111.837 A 3.432 3.432 0 0 0 62.937 112.624 Q 63.08 113.23 63.462 113.646 A 2.139 2.139 0 0 0 63.641 113.819 A 2.615 2.615 0 0 0 64.62 114.339 Q 65.008 114.454 65.472 114.486 A 5.402 5.402 0 0 0 65.847 114.499 Q 67.785 114.499 69.005 113.581 A 4.01 4.01 0 0 0 69.37 113.269 A 4.022 4.022 0 0 0 70.493 111.261 Q 70.651 110.604 70.651 109.826 Z" id="back_labelLayer" stroke="#777777" fill="#777777" style="stroke:#777777;fill:#777777" vector-effect="non-scaling-stroke"/><path d="M 169.734 210.113 L 169.734 205.16 L 197.298 205.16 L 197.298 210.113 L 197.345 210.16 L 225.135 210.16 L 225.182 210.113 L 225.182 205.16 L 252.746 205.16 L 252.746 210.113 L 252.793 210.16 L 266.273 210.16 L 266.32 210.113 L 266.32 174.47 L 271.273 174.47 L 271.32 174.423 L 271.32 146.633 L 271.273 146.586 L 266.32 146.586 L 266.32 119.022 L 271.273 119.022 L 271.32 118.975 L 271.32 91.185 L 271.273 91.138 L 266.32 91.138 L 266.32 63.574 L 271.273 63.574 L 271.32 63.527 L 271.32 35.737 L 271.273 35.69 L 266.32 35.69 L 266.32 0.047 L 266.273 0 L 252.793 0 L 252.746 0.047 L 252.746 5 L 225.182 5 L 225.182 0.047 L 225.135 0 L 197.345 0 L 197.298 0.047 L 197.298 5 L 169.734 5 L 169.734 0.047 L 169.687 0 L 156.207 0 L 156.16 0.047 L 156.16 35.69 L 151.207 35.69 L 151.16 35.737 L 151.16 63.527 L 151.207 63.574 L 156.16 63.574 L 156.16 91.138 L 151.207 91.138 L 151.16 91.185 L 151.16 118.975 L 151.207 119.022 L 156.16 119.022 L 156.16 146.586 L 151.207 146.586 L 151.16 146.633 L 151.16 174.423 L 151.207 174.47 L 156.16 174.47 L 156.16 210.113 L 156.207 210.16 L 169.687 210.16 L 169.734 210.113 Z" id="right_outsideCutPath" stroke="#FF0000" stroke-width="0.1" style="stroke:#FF0000;stroke-width:0.1" vector-effect="non-scaling-stroke"/><path d="M 226.184 111.323 L 224.236 111.323 L 224.236 103.003 Q 224.236 102.001 223.945 101.323 A 2.317 2.317 0 0 0 223.52 100.656 Q 222.941 100.029 221.83 99.91 A 5.164 5.164 0 0 0 221.279 99.882 A 5.895 5.895 0 0 0 220.177 99.978 Q 219.566 100.094 219.095 100.352 A 2.727 2.727 0 0 0 218.316 100.985 A 3.241 3.241 0 0 0 217.766 101.959 Q 217.434 102.852 217.39 104.179 A 12.572 12.572 0 0 0 217.383 104.599 L 217.383 111.323 L 215.435 111.323 L 215.435 93.064 L 217.383 93.064 L 217.383 98.591 Q 217.383 99.309 217.334 99.85 A 7.619 7.619 0 0 1 217.289 100.245 L 217.406 100.245 A 3.892 3.892 0 0 1 218.77 98.933 A 4.754 4.754 0 0 1 219.043 98.784 A 5.001 5.001 0 0 1 220.685 98.298 A 6.322 6.322 0 0 1 221.467 98.251 A 7.903 7.903 0 0 1 222.794 98.355 Q 223.5 98.475 224.059 98.735 A 3.511 3.511 0 0 1 225.004 99.371 A 3.392 3.392 0 0 1 225.841 100.685 Q 226.184 101.617 226.184 102.933 L 226.184 111.323 Z M 208.347 98.462 L 212.795 98.462 L 212.795 99.694 L 210.413 99.975 Q 210.689 100.321 210.916 100.846 A 6.005 6.005 0 0 1 210.999 101.049 A 3.748 3.748 0 0 1 211.221 101.944 A 4.813 4.813 0 0 1 211.258 102.545 Q 211.258 104.435 209.967 105.561 Q 208.804 106.576 206.86 106.676 A 8.461 8.461 0 0 1 206.423 106.688 A 6.26 6.26 0 0 1 205.699 106.647 A 5.286 5.286 0 0 1 205.343 106.594 A 3.466 3.466 0 0 0 204.785 106.955 Q 204.1 107.508 204.1 108.248 A 1.01 1.01 0 0 0 204.151 108.579 Q 204.249 108.863 204.534 109.029 A 1.366 1.366 0 0 0 204.837 109.153 Q 205.154 109.246 205.637 109.271 A 7.41 7.41 0 0 0 206.024 109.281 L 208.301 109.281 A 7.974 7.974 0 0 1 209.511 109.367 Q 210.739 109.556 211.51 110.161 A 2.85 2.85 0 0 1 212.569 111.976 A 4.28 4.28 0 0 1 212.631 112.719 A 4.218 4.218 0 0 1 212.39 114.178 Q 211.988 115.275 210.917 115.975 Q 209.723 116.757 207.764 116.993 A 15.439 15.439 0 0 1 205.918 117.096 A 10.914 10.914 0 0 1 204.455 117.004 Q 203.711 116.903 203.105 116.692 A 4.527 4.527 0 0 1 202.029 116.157 A 3.105 3.105 0 0 1 201.028 115.071 Q 200.707 114.477 200.667 113.724 A 4.113 4.113 0 0 1 200.661 113.505 A 2.978 2.978 0 0 1 201.412 111.475 Q 202.163 110.619 203.525 110.313 A 2.022 2.022 0 0 1 202.74 109.679 A 2.4 2.4 0 0 1 202.697 109.621 A 1.806 1.806 0 0 1 202.366 108.645 A 2.237 2.237 0 0 1 202.363 108.53 A 2.228 2.228 0 0 1 202.475 107.812 A 1.974 1.974 0 0 1 202.738 107.298 Q 203.022 106.899 203.554 106.52 A 6.119 6.119 0 0 1 203.924 106.277 A 3.415 3.415 0 0 1 202.44 105.089 A 4.233 4.233 0 0 1 202.298 104.88 A 4.027 4.027 0 0 1 201.68 102.94 A 4.915 4.915 0 0 1 201.671 102.627 A 5.628 5.628 0 0 1 201.819 101.297 A 3.703 3.703 0 0 1 202.938 99.371 Q 204.033 98.383 205.915 98.248 A 8.603 8.603 0 0 1 206.529 98.227 A 7.466 7.466 0 0 1 207.516 98.289 A 5.687 5.687 0 0 1 208.347 98.462 Z M 236.099 109.715 L 236.099 111.205 A 1.916 1.916 0 0 1 235.872 111.295 Q 235.59 111.389 235.166 111.458 A 8.443 8.443 0 0 1 234.616 111.529 Q 234.356 111.554 234.123 111.557 A 4.996 4.996 0 0 1 234.057 111.557 A 5.088 5.088 0 0 1 232.558 111.356 Q 230.91 110.847 230.479 109.057 A 6.123 6.123 0 0 1 230.326 107.626 L 230.326 99.975 L 228.484 99.975 L 228.484 99.037 L 230.326 98.227 L 231.147 95.481 L 232.274 95.481 L 232.274 98.462 L 236.005 98.462 L 236.005 99.975 L 232.274 99.975 L 232.274 107.544 A 3.922 3.922 0 0 0 232.33 108.233 Q 232.398 108.611 232.546 108.91 A 1.889 1.889 0 0 0 232.825 109.328 Q 233.377 109.95 234.339 109.95 A 6.397 6.397 0 0 0 235.276 109.883 A 5.896 5.896 0 0 0 235.337 109.873 A 10.537 10.537 0 0 0 235.618 109.825 Q 235.906 109.771 236.099 109.715 Z M 193.785 98.368 L 193.515 100.175 Q 192.851 100.028 192.316 100.004 A 4.569 4.569 0 0 0 192.107 99.999 A 3.375 3.375 0 0 0 189.614 101.076 A 4.617 4.617 0 0 0 189.438 101.266 A 4.448 4.448 0 0 0 188.364 103.764 A 5.913 5.913 0 0 0 188.329 104.423 L 188.329 111.323 L 186.381 111.323 L 186.381 98.462 L 187.988 98.462 L 188.211 100.844 L 188.305 100.844 Q 189.021 99.588 190.03 98.908 Q 191.039 98.227 192.248 98.227 A 8.943 8.943 0 0 1 193.048 98.261 A 6.527 6.527 0 0 1 193.785 98.368 Z M 198.139 98.462 L 198.139 111.323 L 196.191 111.323 L 196.191 98.462 L 198.139 98.462 Z M 207.679 111.029 L 205.343 111.029 A 4.478 4.478 0 0 0 204.536 111.097 Q 204.078 111.182 203.716 111.369 A 2.282 2.282 0 0 0 203.278 111.663 Q 202.539 112.297 202.539 113.482 Q 202.539 114.456 203.304 114.991 A 2.285 2.285 0 0 0 203.419 115.066 Q 204.295 115.603 205.926 115.606 A 10.02 10.02 0 0 0 205.942 115.606 A 13.095 13.095 0 0 0 207.221 115.548 Q 208.503 115.421 209.308 115.02 A 3.235 3.235 0 0 0 209.574 114.872 A 2.841 2.841 0 0 0 210.233 114.321 A 2.129 2.129 0 0 0 210.753 112.883 Q 210.753 112.236 210.505 111.835 A 1.228 1.228 0 0 0 210.108 111.434 A 1.848 1.848 0 0 0 209.67 111.243 Q 209.203 111.099 208.464 111.052 A 12.394 12.394 0 0 0 207.679 111.029 Z M 203.595 102.581 Q 203.595 103.93 204.358 104.622 A 2.518 2.518 0 0 0 205.371 105.172 Q 205.757 105.284 206.218 105.308 A 5.016 5.016 0 0 0 206.482 105.315 Q 209.333 105.315 209.333 102.545 A 4.188 4.188 0 0 0 209.19 101.398 Q 208.823 100.112 207.516 99.77 A 4.237 4.237 0 0 0 206.447 99.647 Q 205.394 99.647 204.714 100.081 A 2.242 2.242 0 0 0 204.334 100.386 Q 203.707 101.014 203.612 102.156 A 5.124 5.124 0 0 0 203.595 102.581 Z M 196.054 94.62 A 2.158 2.158 0 0 0 196.026 94.977 A 2.3 2.3 0 0 0 196.036 95.197 Q 196.084 95.69 196.355 95.956 A 1.093 1.093 0 0 0 196.75 96.208 A 1.237 1.237 0 0 0 197.176 96.279 Q 197.646 96.279 197.986 95.956 Q 198.223 95.732 198.295 95.346 A 2.015 2.015 0 0 0 198.326 94.977 Q 198.326 94.656 198.245 94.416 A 0.984 0.984 0 0 0 197.986 94.003 A 1.148 1.148 0 0 0 197.176 93.686 A 1.487 1.487 0 0 0 197.078 93.689 A 1.126 1.126 0 0 0 196.355 93.997 A 0.911 0.911 0 0 0 196.154 94.283 Q 196.085 94.431 196.054 94.62 Z" id="right_labelLayer" stroke="#777777" fill="#777777" style="stroke:#777777;fill:#777777" vector-effect="non-scaling-stroke"/><path d="M 334.618 300.113 L 334.618 295.16 L 362.182 295.16 L 362.182 300.113 L 362.229 300.16 L 390.019 300.16 L 390.066 300.113 L 390.066 295.16 L 417.433 295.16 L 417.48 295.113 L 417.48 281.746 L 422.433 281.746 L 422.48 281.699 L 422.48 253.909 L 422.433 253.862 L 417.48 253.862 L 417.48 226.298 L 422.433 226.298 L 422.48 226.251 L 422.48 198.461 L 422.433 198.414 L 417.48 198.414 L 417.48 185.047 L 417.433 185 L 390.066 185 L 390.066 180.047 L 390.019 180 L 362.229 180 L 362.182 180.047 L 362.182 185 L 334.618 185 L 334.618 180.047 L 334.571 180 L 306.781 180 L 306.734 180.047 L 306.734 185 L 279.367 185 L 279.32 185.047 L 279.32 198.414 L 274.367 198.414 L 274.32 198.461 L 274.32 226.251 L 274.367 226.298 L 279.32 226.298 L 279.32 253.862 L 274.367 253.862 L 274.32 253.909 L 274.32 281.699 L 274.367 281.746 L 279.32 281.746 L 279.32 295.113 L 279.367 295.16 L 306.734 295.16 L 306.734 300.113 L 306.781 300.16 L 334.571 300.16 L 334.618 300.113 Z" id="bottom_outsideCutPath" stroke="#FF0000" stroke-width="0.1" style="stroke:#FF0000;stroke-width:0.1" vector-effect="non-scaling-stroke"/><path d="M 387.933 249.092 L 385.985 249.092 L 385.985 240.725 A 5.746 5.746 0 0 0 385.927 239.88 Q 385.863 239.449 385.727 239.101 A 2.354 2.354 0 0 0 385.328 238.419 Q 384.753 237.747 383.622 237.663 A 4.522 4.522 0 0 0 383.286 237.651 Q 382.011 237.651 381.203 238.164 A 2.58 2.58 0 0 0 380.599 238.695 Q 379.735 239.735 379.731 241.89 A 10.857 10.857 0 0 0 379.731 241.91 L 379.731 249.092 L 377.783 249.092 L 377.783 240.725 A 5.746 5.746 0 0 0 377.725 239.88 Q 377.661 239.449 377.525 239.101 A 2.354 2.354 0 0 0 377.126 238.419 A 2.043 2.043 0 0 0 376.186 237.808 Q 375.705 237.651 375.072 237.651 A 4.838 4.838 0 0 0 374.072 237.747 Q 373.454 237.878 372.994 238.185 A 2.553 2.553 0 0 0 372.391 238.748 A 3.267 3.267 0 0 0 371.907 239.668 Q 371.592 240.556 371.548 241.888 A 13.562 13.562 0 0 0 371.54 242.344 L 371.54 249.092 L 369.592 249.092 L 369.592 236.231 L 371.176 236.231 L 371.493 237.991 L 371.587 237.991 A 3.828 3.828 0 0 1 373.142 236.524 A 4.625 4.625 0 0 1 374.969 236.012 A 5.586 5.586 0 0 1 375.389 235.996 A 6.377 6.377 0 0 1 376.824 236.146 Q 378.647 236.567 379.332 238.179 L 379.426 238.179 A 4.067 4.067 0 0 1 380.958 236.658 A 4.886 4.886 0 0 1 381.092 236.583 A 4.93 4.93 0 0 1 382.9 236.033 A 6.147 6.147 0 0 1 383.58 235.996 A 6.771 6.771 0 0 1 384.808 236.1 Q 385.49 236.226 386.024 236.505 A 3.21 3.21 0 0 1 386.848 237.117 A 3.354 3.354 0 0 1 387.568 238.295 Q 387.762 238.814 387.853 239.461 A 8.934 8.934 0 0 1 387.933 240.702 L 387.933 249.092 Z M 310.815 247.437 L 310.674 247.437 L 310.263 249.092 L 308.867 249.092 L 308.867 230.833 L 310.815 230.833 L 310.815 235.269 A 40.612 40.612 0 0 1 310.793 236.641 Q 310.769 237.333 310.721 237.944 L 310.815 237.944 A 4.429 4.429 0 0 1 314.047 236.067 A 6.653 6.653 0 0 1 314.851 236.02 A 5.953 5.953 0 0 1 316.527 236.243 A 4.457 4.457 0 0 1 318.788 237.75 A 5.74 5.74 0 0 1 319.795 239.689 Q 320.191 240.966 320.191 242.65 A 11.421 11.421 0 0 1 320.039 244.571 Q 319.728 246.392 318.777 247.572 Q 317.363 249.326 314.851 249.326 A 5.908 5.908 0 0 1 313.367 249.145 A 5.141 5.141 0 0 1 312.557 248.863 Q 311.519 248.399 310.815 247.437 Z M 344.023 247.484 L 344.023 248.974 A 1.916 1.916 0 0 1 343.796 249.065 Q 343.514 249.158 343.09 249.227 A 8.443 8.443 0 0 1 342.54 249.298 Q 342.28 249.323 342.047 249.326 A 4.996 4.996 0 0 1 341.981 249.326 A 5.088 5.088 0 0 1 340.482 249.125 Q 338.834 248.616 338.403 246.826 A 6.123 6.123 0 0 1 338.25 245.395 L 338.25 237.745 L 336.407 237.745 L 336.407 236.806 L 338.25 235.996 L 339.071 233.25 L 340.198 233.25 L 340.198 236.231 L 343.929 236.231 L 343.929 237.745 L 340.198 237.745 L 340.198 245.313 A 3.922 3.922 0 0 0 340.254 246.002 Q 340.322 246.38 340.47 246.679 A 1.889 1.889 0 0 0 340.749 247.097 Q 341.301 247.719 342.263 247.719 A 6.397 6.397 0 0 0 343.2 247.652 A 5.896 5.896 0 0 0 343.26 247.643 A 10.537 10.537 0 0 0 343.541 247.594 Q 343.829 247.541 344.023 247.484 Z M 352.507 247.484 L 352.507 248.974 A 1.916 1.916 0 0 1 352.28 249.065 Q 351.998 249.158 351.574 249.227 A 8.443 8.443 0 0 1 351.024 249.298 Q 350.764 249.323 350.531 249.326 A 4.996 4.996 0 0 1 350.465 249.326 A 5.088 5.088 0 0 1 348.966 249.125 Q 347.318 248.616 346.887 246.826 A 6.123 6.123 0 0 1 346.734 245.395 L 346.734 237.745 L 344.891 237.745 L 344.891 236.806 L 346.734 235.996 L 347.555 233.25 L 348.682 233.25 L 348.682 236.231 L 352.413 236.231 L 352.413 237.745 L 348.682 237.745 L 348.682 245.313 A 3.922 3.922 0 0 0 348.738 246.002 Q 348.806 246.38 348.954 246.679 A 1.889 1.889 0 0 0 349.233 247.097 Q 349.785 247.719 350.747 247.719 A 6.397 6.397 0 0 0 351.684 247.652 A 5.896 5.896 0 0 0 351.744 247.643 A 10.537 10.537 0 0 0 352.025 247.594 Q 352.313 247.541 352.507 247.484 Z M 334.515 244.607 A 10.062 10.062 0 0 0 334.694 242.65 Q 334.694 239.587 333.104 237.791 A 5.099 5.099 0 0 0 330.737 236.265 A 6.545 6.545 0 0 0 328.815 235.996 A 7.565 7.565 0 0 0 327.456 236.113 A 5.152 5.152 0 0 0 324.45 237.75 A 5.382 5.382 0 0 0 323.789 238.667 Q 323.28 239.554 323.055 240.694 A 10.114 10.114 0 0 0 322.878 242.65 Q 322.878 244.68 323.605 246.193 A 6.403 6.403 0 0 0 323.747 246.471 A 5.273 5.273 0 0 0 325.67 248.517 A 5.424 5.424 0 0 0 326.915 249.07 A 6.255 6.255 0 0 0 328.733 249.326 A 7.564 7.564 0 0 0 330.054 249.216 A 5.193 5.193 0 0 0 333.11 247.56 A 5.434 5.434 0 0 0 333.757 246.671 Q 334.285 245.769 334.515 244.607 Z M 365.999 244.607 A 10.062 10.062 0 0 0 366.178 242.65 Q 366.178 239.587 364.588 237.791 A 5.099 5.099 0 0 0 362.22 236.265 A 6.545 6.545 0 0 0 360.299 235.996 A 7.565 7.565 0 0 0 358.94 236.113 A 5.152 5.152 0 0 0 355.933 237.75 A 5.382 5.382 0 0 0 355.272 238.667 Q 354.763 239.554 354.538 240.694 A 10.114 10.114 0 0 0 354.361 242.65 Q 354.361 244.68 355.089 246.193 A 6.403 6.403 0 0 0 355.23 246.471 A 5.273 5.273 0 0 0 357.154 248.517 A 5.424 5.424 0 0 0 358.399 249.07 A 6.255 6.255 0 0 0 360.216 249.326 A 7.564 7.564 0 0 0 361.537 249.216 A 5.193 5.193 0 0 0 364.593 247.56 A 5.434 5.434 0 0 0 365.24 246.671 Q 365.768 245.769 365.999 244.607 Z M 324.896 242.65 A 9.864 9.864 0 0 0 324.99 244.059 Q 325.2 245.512 325.882 246.405 A 3.193 3.193 0 0 0 327.961 247.629 A 4.838 4.838 0 0 0 328.78 247.695 A 4.524 4.524 0 0 0 329.974 247.547 A 3.149 3.149 0 0 0 331.684 246.41 Q 332.422 245.455 332.611 243.841 A 10.261 10.261 0 0 0 332.676 242.65 A 9.719 9.719 0 0 0 332.584 241.265 Q 332.482 240.56 332.268 239.988 A 4.011 4.011 0 0 0 331.684 238.924 A 3.204 3.204 0 0 0 329.692 237.735 A 4.913 4.913 0 0 0 328.757 237.651 A 4.636 4.636 0 0 0 327.602 237.786 A 3.102 3.102 0 0 0 325.87 238.906 A 4.027 4.027 0 0 0 325.244 240.116 Q 325.059 240.672 324.972 241.352 A 10.293 10.293 0 0 0 324.896 242.65 Z M 356.379 242.65 A 9.864 9.864 0 0 0 356.473 244.059 Q 356.683 245.512 357.365 246.405 A 3.193 3.193 0 0 0 359.444 247.629 A 4.838 4.838 0 0 0 360.263 247.695 A 4.524 4.524 0 0 0 361.457 247.547 A 3.149 3.149 0 0 0 363.168 246.41 Q 363.905 245.455 364.094 243.841 A 10.261 10.261 0 0 0 364.159 242.65 A 9.719 9.719 0 0 0 364.067 241.265 Q 363.965 240.56 363.751 239.988 A 4.011 4.011 0 0 0 363.168 238.924 A 3.204 3.204 0 0 0 361.175 237.735 A 4.913 4.913 0 0 0 360.24 237.651 A 4.636 4.636 0 0 0 359.086 237.786 A 3.102 3.102 0 0 0 357.353 238.906 A 4.027 4.027 0 0 0 356.727 240.116 Q 356.542 240.672 356.456 241.352 A 10.293 10.293 0 0 0 356.379 242.65 Z M 312.447 238.134 A 2.591 2.591 0 0 0 311.695 238.795 A 3.334 3.334 0 0 0 311.212 239.714 Q 310.887 240.627 310.828 242.015 A 15.008 15.008 0 0 0 310.815 242.65 Q 310.815 244.952 311.467 246.141 A 2.938 2.938 0 0 0 311.718 246.528 Q 312.528 247.574 314.215 247.683 A 6.263 6.263 0 0 0 314.617 247.695 Q 316.412 247.695 317.292 246.387 Q 318.172 245.079 318.172 242.626 A 11.508 11.508 0 0 0 318.103 241.315 Q 317.925 239.768 317.292 238.883 A 2.841 2.841 0 0 0 315.484 237.738 A 4.505 4.505 0 0 0 314.57 237.651 Q 313.273 237.651 312.447 238.134 Z" id="bottom_labelLayer" stroke="#777777" fill="#777777" style="stroke:#777777;fill:#777777" vector-effect="non-scaling-stroke"/></g></svg>